<?xml version="1.0" encoding="UTF-8" standalone="no"?>
<!-- Created with Inkscape (http://www.inkscape.org/) -->

<svg
   width="60"
   height="60"
   viewBox="0 0 15.875 15.875"
   version="1.1"
   id="svg5"
   inkscape:version="1.1.2 (0a00cf5339, 2022-02-04, custom)"
   sodipodi:docname="menu.svg"
   xmlns:inkscape="http://www.inkscape.org/namespaces/inkscape"
   xmlns:sodipodi="http://sodipodi.sourceforge.net/DTD/sodipodi-0.dtd"
   xmlns="http://www.w3.org/2000/svg"
   xmlns:svg="http://www.w3.org/2000/svg">
  <sodipodi:namedview
     id="namedview7"
     pagecolor="#ffffff"
     bordercolor="#666666"
     borderopacity="1.0"
     inkscape:pageshadow="2"
     inkscape:pageopacity="0.0"
     inkscape:pagecheckerboard="0"
     inkscape:document-units="mm"
     showgrid="false"
     units="px"
     showguides="true"
     inkscape:zoom="7.9175139"
     inkscape:cx="31.007208"
     inkscape:cy="32.712289"
     inkscape:window-width="1600"
     inkscape:window-height="837"
     inkscape:window-x="-8"
     inkscape:window-y="-8"
     inkscape:window-maximized="1"
     inkscape:current-layer="layer1" />
  <defs
     id="defs2" />
  <g
     inkscape:label="Calque 1"
     inkscape:groupmode="layer"
     id="layer1">
    <rect
       style="fill:#f06043;fill-opacity:1;stroke-width:1.24202;stroke-linecap:round;stroke-linejoin:round"
       id="rect939"
       width="10.583333"
       height="10.583333"
       x="2.6458333"
       y="2.6458333" />
    <path
       id="path1030"
       style="fill:#fbd2b5;stroke-width:17.1418;stroke-linecap:round;stroke-linejoin:round;fill-opacity:1"
       d="M 30.101562 0 A 30 30 0 0 0 0 29.796875 A 30 30 0 0 0 29.697266 59.998047 A 30 30 0 0 0 59.998047 30.404297 L 60 30 A 30 30 0 0 0 30.101562 0 z M 14 14 L 22 14 L 22 22 L 14 22 L 14 14 z M 25 15 L 46 15 L 46 21 L 25 21 L 25 15 z M 14 26 L 22 26 L 22 34 L 14 34 L 14 26 z M 25 27 L 46 27 L 46 33 L 25 33 L 25 27 z M 14 38 L 22 38 L 22 46 L 14 46 L 14 38 z M 25 39 L 46 39 L 46 45 L 25 45 L 25 39 z "
       transform="scale(0.26458333)" />
  </g>
</svg>
