<?xml version="1.0" encoding="UTF-8" standalone="no"?>
<!-- Created with Inkscape (http://www.inkscape.org/) -->

<svg
   width="60"
   height="60"
   viewBox="0 0 15.875 15.875"
   version="1.1"
   id="svg5"
   inkscape:version="1.1.2 (0a00cf5339, 2022-02-04, custom)"
   sodipodi:docname="prix.svg"
   xmlns:inkscape="http://www.inkscape.org/namespaces/inkscape"
   xmlns:sodipodi="http://sodipodi.sourceforge.net/DTD/sodipodi-0.dtd"
   xmlns="http://www.w3.org/2000/svg"
   xmlns:svg="http://www.w3.org/2000/svg">
  <sodipodi:namedview
     id="namedview7"
     pagecolor="#ffffff"
     bordercolor="#666666"
     borderopacity="1.0"
     inkscape:pageshadow="2"
     inkscape:pageopacity="0.0"
     inkscape:pagecheckerboard="0"
     inkscape:document-units="mm"
     showgrid="false"
     units="px"
     showguides="true"
     inkscape:zoom="7.9175139"
     inkscape:cx="31.007208"
     inkscape:cy="32.712289"
     inkscape:window-width="1600"
     inkscape:window-height="837"
     inkscape:window-x="-8"
     inkscape:window-y="-8"
     inkscape:window-maximized="1"
     inkscape:current-layer="layer1" />
  <defs
     id="defs2" />
  <g
     inkscape:label="Calque 1"
     inkscape:groupmode="layer"
     id="layer1">
    <path
       style="fill:#cc9600;fill-opacity:1;stroke-width:4.53543;stroke-linecap:round;stroke-linejoin:round"
       id="path1704"
       sodipodi:type="arc"
       sodipodi:cx="7.9375"
       sodipodi:cy="7.9375"
       sodipodi:rx="7.9375"
       sodipodi:ry="7.9375"
       sodipodi:start="0.013480801"
       sodipodi:end="6.2831853"
       sodipodi:open="true"
       sodipodi:arc-type="arc"
       d="M 15.874279,8.0445006 A 7.9375,7.9375 0 0 1 7.8572485,15.874594 7.9375,7.9375 0 0 1 1.8031134e-4,7.8839985 7.9375,7.9375 0 0 1 7.9642509,4.5077867e-5 7.9375,7.9375 0 0 1 15.875,7.9375" />
    <path
       id="path2442"
       style="fill:#ffc933;fill-opacity:1;stroke-width:17.1418;stroke-linecap:round;stroke-linejoin:round"
       d="M 30.083984 5 A 25.000001 25.000001 0 0 0 5 29.832031 A 25.000001 25.000001 0 0 0 29.748047 54.998047 A 25.000001 25.000001 0 0 0 54.998047 30.337891 L 55 30 A 25.000001 25.000001 0 0 0 30.083984 5 z M 28.236328 10 L 31.371094 10 L 31.371094 14.259766 C 33.101 14.325045 34.666803 14.521259 36.070312 14.847656 C 37.506461 15.174054 38.81325 15.580716 39.988281 16.070312 L 38.666016 19.693359 C 37.621544 19.269043 36.462403 18.910945 35.189453 18.617188 C 33.949143 18.29079 32.676684 18.078388 31.371094 17.980469 L 31.371094 27.822266 C 33.525317 28.442421 35.31971 29.110051 36.755859 29.828125 C 38.192008 30.51356 39.270207 31.379356 39.988281 32.423828 C 40.738995 33.43566 41.113281 34.756684 41.113281 36.388672 C 41.113281 38.673454 40.265626 40.534554 38.568359 41.970703 C 36.871092 43.374212 34.47187 44.240009 31.371094 44.566406 L 31.371094 50 L 28.236328 50 L 28.236328 44.761719 C 26.441142 44.729079 24.695314 44.58143 22.998047 44.320312 C 21.30078 44.026555 19.931191 43.636081 18.886719 43.146484 L 18.886719 38.984375 C 19.99647 39.506611 21.414625 39.963792 23.144531 40.355469 C 24.874438 40.747146 26.571701 40.959548 28.236328 40.992188 L 28.236328 31.101562 C 25.004993 30.220289 22.6401 29.109714 21.138672 27.771484 C 19.637243 26.433255 18.886719 24.606485 18.886719 22.289062 C 18.886719 19.873721 19.718185 17.980244 21.382812 16.609375 C 23.080079 15.238506 25.36403 14.471792 28.236328 14.308594 L 28.236328 10 z M 28.236328 18.078125 C 26.473782 18.208684 25.168946 18.6173 24.320312 19.302734 C 23.504319 19.988169 23.095703 20.868201 23.095703 21.945312 C 23.095703 23.250902 23.455754 24.264347 24.173828 24.982422 C 24.924542 25.667857 26.277943 26.254544 28.236328 26.744141 L 28.236328 18.078125 z M 31.371094 32.128906 L 31.371094 40.746094 C 33.296839 40.550255 34.700758 40.109263 35.582031 39.423828 C 36.463304 38.705754 36.902344 37.793345 36.902344 36.683594 C 36.902344 35.443283 36.51187 34.512733 35.728516 33.892578 C 34.945162 33.272423 33.492677 32.683782 31.371094 32.128906 z "
       transform="scale(0.26458333)" />
  </g>
</svg>
