<?xml version="1.0" encoding="UTF-8" standalone="no"?>
<!-- Created with Inkscape (http://www.inkscape.org/) -->

<svg
   width="60"
   height="60"
   viewBox="0 0 15.875 15.875"
   version="1.1"
   id="svg5"
   inkscape:version="1.1.2 (0a00cf5339, 2022-02-04, custom)"
   sodipodi:docname="valider.svg"
   xmlns:inkscape="http://www.inkscape.org/namespaces/inkscape"
   xmlns:sodipodi="http://sodipodi.sourceforge.net/DTD/sodipodi-0.dtd"
   xmlns="http://www.w3.org/2000/svg"
   xmlns:svg="http://www.w3.org/2000/svg">
  <sodipodi:namedview
     id="namedview7"
     pagecolor="#ffffff"
     bordercolor="#666666"
     borderopacity="1.0"
     inkscape:pageshadow="2"
     inkscape:pageopacity="0.0"
     inkscape:pagecheckerboard="0"
     inkscape:document-units="mm"
     showgrid="false"
     units="px"
     showguides="true"
     inkscape:zoom="7.9175139"
     inkscape:cx="31.007208"
     inkscape:cy="32.712289"
     inkscape:window-width="1600"
     inkscape:window-height="837"
     inkscape:window-x="-8"
     inkscape:window-y="-8"
     inkscape:window-maximized="1"
     inkscape:current-layer="layer1" />
  <defs
     id="defs2" />
  <g
     inkscape:label="Calque 1"
     inkscape:groupmode="layer"
     id="layer1">
    <path
       id="rect867"
       style="fill:#00b21e;fill-opacity:1;stroke-width:4.51691;stroke-linecap:round;stroke-linejoin:round"
       d="M 10 0 C 4.4600003 1.1842379e-15 0 4.4600003 0 10 L 0 50 C 1.1842379e-15 55.54 4.4600003 60 10 60 L 50 60 C 55.54 60 60 55.54 60 50 L 60 10 C 60 4.4600003 55.54 0 50 0 L 10 0 z M 10 5 L 50 5 C 52.77 5 55 7.2300001 55 10 L 55 50 C 55 52.77 52.77 55 50 55 L 10 55 C 7.2300001 55 5 52.77 5 50 L 5 10 C 5 7.2300001 7.2300001 5 10 5 z M 10 10 L 27.5 50 L 32.5 50 L 50 10 L 45 10 L 30 44.285156 L 15 10 L 10 10 z "
       transform="scale(0.26458333)" />
    <path
       id="path2117"
       style="fill:none;stroke:none;stroke-width:0.999999px;stroke-linecap:butt;stroke-linejoin:miter;stroke-opacity:1"
       d="M 10 10 L 27.5 30 L 10 50 L 15 50 L 30 32.857422 L 45 50 L 50 50 L 32.5 30 L 50 10 L 45 10 L 30 27.142578 L 15 10 L 10 10 z "
       transform="scale(0.26458333)" />
  </g>
</svg>
